<svg id="visual" viewBox="0 0 900 600" width="900" height="600" xmlns="http://www.w3.org/2000/svg" xmlns:xlink="http://www.w3.org/1999/xlink" version="1.1"><rect x="0" y="0" width="900" height="600" fill="#3b4353"></rect><path d="M0 223L21.5 235.2C43 247.3 86 271.7 128.8 284.3C171.7 297 214.3 298 257.2 286.2C300 274.3 343 249.7 385.8 255.7C428.7 261.7 471.3 298.3 514.2 315.7C557 333 600 331 642.8 314.2C685.7 297.3 728.3 265.7 771.2 256.7C814 247.7 857 261.3 878.5 268.2L900 275L900 0L878.5 0C857 0 814 0 771.2 0C728.3 0 685.7 0 642.8 0C600 0 557 0 514.2 0C471.3 0 428.7 0 385.8 0C343 0 300 0 257.2 0C214.3 0 171.7 0 128.8 0C86 0 43 0 21.5 0L0 0Z" fill="#434a5f"></path><path d="M0 234L21.5 238.5C43 243 86 252 128.8 248.2C171.7 244.3 214.3 227.7 257.2 213.8C300 200 343 189 385.8 189.3C428.7 189.7 471.3 201.3 514.2 218.5C557 235.7 600 258.3 642.8 256.5C685.7 254.7 728.3 228.3 771.2 216.7C814 205 857 208 878.5 209.5L900 211L900 0L878.5 0C857 0 814 0 771.2 0C728.3 0 685.7 0 642.8 0C600 0 557 0 514.2 0C471.3 0 428.7 0 385.8 0C343 0 300 0 257.2 0C214.3 0 171.7 0 128.8 0C86 0 43 0 21.5 0L0 0Z" fill="#5c5171"></path><path d="M0 153L21.5 158C43 163 86 173 128.8 175.5C171.7 178 214.3 173 257.2 167.8C300 162.7 343 157.3 385.8 158.7C428.7 160 471.3 168 514.2 167C557 166 600 156 642.8 153.7C685.7 151.3 728.3 156.7 771.2 159.7C814 162.7 857 163.3 878.5 163.7L900 164L900 0L878.5 0C857 0 814 0 771.2 0C728.3 0 685.7 0 642.8 0C600 0 557 0 514.2 0C471.3 0 428.7 0 385.8 0C343 0 300 0 257.2 0C214.3 0 171.7 0 128.8 0C86 0 43 0 21.5 0L0 0Z" fill="#7e567b"></path><path d="M0 99L21.5 101.8C43 104.7 86 110.3 128.8 118.2C171.7 126 214.3 136 257.2 142.8C300 149.7 343 153.3 385.8 150.3C428.7 147.3 471.3 137.7 514.2 128.8C557 120 600 112 642.8 106C685.7 100 728.3 96 771.2 106C814 116 857 140 878.5 152L900 164L900 0L878.5 0C857 0 814 0 771.2 0C728.3 0 685.7 0 642.8 0C600 0 557 0 514.2 0C471.3 0 428.7 0 385.8 0C343 0 300 0 257.2 0C214.3 0 171.7 0 128.8 0C86 0 43 0 21.5 0L0 0Z" fill="#a25979"></path><path d="M0 59L21.5 63.5C43 68 86 77 128.8 77.3C171.7 77.7 214.3 69.3 257.2 61.7C300 54 343 47 385.8 50.5C428.7 54 471.3 68 514.2 76.2C557 84.3 600 86.7 642.8 85C685.7 83.3 728.3 77.7 771.2 75.5C814 73.3 857 74.7 878.5 75.3L900 76L900 0L878.5 0C857 0 814 0 771.2 0C728.3 0 685.7 0 642.8 0C600 0 557 0 514.2 0C471.3 0 428.7 0 385.8 0C343 0 300 0 257.2 0C214.3 0 171.7 0 128.8 0C86 0 43 0 21.5 0L0 0Z" fill="#bf606b"></path></svg>