<svg id="visual" viewBox="0 0 900 600" width="900" height="600" xmlns="http://www.w3.org/2000/svg" xmlns:xlink="http://www.w3.org/1999/xlink" version="1.1"><rect x="0" y="0" width="900" height="600" fill="#3b4353"></rect><path d="M0 411L21.5 392.7C43 374.3 86 337.7 128.8 337.3C171.7 337 214.3 373 257.2 384.2C300 395.3 343 381.7 385.8 388.2C428.7 394.7 471.3 421.3 514.2 420.8C557 420.3 600 392.7 642.8 397.3C685.7 402 728.3 439 771.2 429C814 419 857 362 878.5 333.5L900 305L900 0L878.5 0C857 0 814 0 771.2 0C728.3 0 685.7 0 642.8 0C600 0 557 0 514.2 0C471.3 0 428.7 0 385.8 0C343 0 300 0 257.2 0C214.3 0 171.7 0 128.8 0C86 0 43 0 21.5 0L0 0Z" fill="#3b4353"></path><path d="M0 366L21.5 356.2C43 346.3 86 326.7 128.8 318.8C171.7 311 214.3 315 257.2 324.2C300 333.3 343 347.7 385.8 355.7C428.7 363.7 471.3 365.3 514.2 373C557 380.7 600 394.3 642.8 393.5C685.7 392.7 728.3 377.3 771.2 361C814 344.7 857 327.3 878.5 318.7L900 310L900 0L878.5 0C857 0 814 0 771.2 0C728.3 0 685.7 0 642.8 0C600 0 557 0 514.2 0C471.3 0 428.7 0 385.8 0C343 0 300 0 257.2 0C214.3 0 171.7 0 128.8 0C86 0 43 0 21.5 0L0 0Z" fill="#534d6a"></path><path d="M0 253L21.5 256C43 259 86 265 128.8 254.2C171.7 243.3 214.3 215.7 257.2 216.3C300 217 343 246 385.8 245.2C428.7 244.3 471.3 213.7 514.2 217.2C557 220.7 600 258.3 642.8 260.8C685.7 263.3 728.3 230.7 771.2 211C814 191.3 857 184.7 878.5 181.3L900 178L900 0L878.5 0C857 0 814 0 771.2 0C728.3 0 685.7 0 642.8 0C600 0 557 0 514.2 0C471.3 0 428.7 0 385.8 0C343 0 300 0 257.2 0C214.3 0 171.7 0 128.8 0C86 0 43 0 21.5 0L0 0Z" fill="#775377"></path><path d="M0 156L21.5 166.5C43 177 86 198 128.8 191.3C171.7 184.7 214.3 150.3 257.2 143.7C300 137 343 158 385.8 173.8C428.7 189.7 471.3 200.3 514.2 190.8C557 181.3 600 151.7 642.8 149.8C685.7 148 728.3 174 771.2 172.7C814 171.3 857 142.7 878.5 128.3L900 114L900 0L878.5 0C857 0 814 0 771.2 0C728.3 0 685.7 0 642.8 0C600 0 557 0 514.2 0C471.3 0 428.7 0 385.8 0C343 0 300 0 257.2 0C214.3 0 171.7 0 128.8 0C86 0 43 0 21.5 0L0 0Z" fill="#9e5877"></path><path d="M0 127L21.5 117.5C43 108 86 89 128.8 82.7C171.7 76.3 214.3 82.7 257.2 88.3C300 94 343 99 385.8 93.5C428.7 88 471.3 72 514.2 75.5C557 79 600 102 642.8 117.3C685.7 132.7 728.3 140.3 771.2 137.5C814 134.7 857 121.3 878.5 114.7L900 108L900 0L878.5 0C857 0 814 0 771.2 0C728.3 0 685.7 0 642.8 0C600 0 557 0 514.2 0C471.3 0 428.7 0 385.8 0C343 0 300 0 257.2 0C214.3 0 171.7 0 128.8 0C86 0 43 0 21.5 0L0 0Z" fill="#bf606b"></path></svg>