<svg id="visual" viewBox="0 0 900 200" width="900" height="200" xmlns="http://www.w3.org/2000/svg" xmlns:xlink="http://www.w3.org/1999/xlink" version="1.1"><rect x="0" y="0" width="900" height="200" fill="#bf606b"></rect><path d="M0 41L37.5 36.3C75 31.7 150 22.3 225 20.8C300 19.3 375 25.7 450 53.5C525 81.3 600 130.7 675 141.3C750 152 825 124 862.5 110L900 96L900 201L862.5 201C825 201 750 201 675 201C600 201 525 201 450 201C375 201 300 201 225 201C150 201 75 201 37.5 201L0 201Z" fill="#3b4353" stroke-linecap="round" stroke-linejoin="miter"></path></svg>