<svg id="visual" viewBox="0 0 900 300" width="900" height="300" xmlns="http://www.w3.org/2000/svg" xmlns:xlink="http://www.w3.org/1999/xlink" version="1.1"><rect x="0" y="0" width="900" height="300" fill="#272a34"></rect><path d="M0 66L30 64.3C60 62.7 120 59.3 180 75.8C240 92.3 300 128.7 360 138C420 147.3 480 129.7 540 109.3C600 89 660 66 720 59C780 52 840 61 870 65.5L900 70L900 301L870 301C840 301 780 301 720 301C660 301 600 301 540 301C480 301 420 301 360 301C300 301 240 301 180 301C120 301 60 301 30 301L0 301Z" fill="#cf866e"></path><path d="M0 103L30 107.5C60 112 120 121 180 124.7C240 128.3 300 126.7 360 137.7C420 148.7 480 172.3 540 173.5C600 174.7 660 153.3 720 146.2C780 139 840 146 870 149.5L900 153L900 301L870 301C840 301 780 301 720 301C660 301 600 301 540 301C480 301 420 301 360 301C300 301 240 301 180 301C120 301 60 301 30 301L0 301Z" fill="#cb796c"></path><path d="M0 169L30 165.2C60 161.3 120 153.7 180 163.5C240 173.3 300 200.7 360 203C420 205.3 480 182.7 540 172.5C600 162.3 660 164.7 720 177.2C780 189.7 840 212.3 870 223.7L900 235L900 301L870 301C840 301 780 301 720 301C660 301 600 301 540 301C480 301 420 301 360 301C300 301 240 301 180 301C120 301 60 301 30 301L0 301Z" fill="#c56d6b"></path><path d="M0 253L30 255.5C60 258 120 263 180 255C240 247 300 226 360 216.7C420 207.3 480 209.7 540 219.3C600 229 660 246 720 257C780 268 840 273 870 275.5L900 278L900 301L870 301C840 301 780 301 720 301C660 301 600 301 540 301C480 301 420 301 360 301C300 301 240 301 180 301C120 301 60 301 30 301L0 301Z" fill="#bf606b"></path></svg>